<svg width="197" height="40" viewBox="0 0 197 40" fill="none" xmlns="http://www.w3.org/2000/svg">
<g clip-path="url(#clip0_5902_13370)">
<path d="M52.0667 14.8834H46.9972V10.4H62.7945V14.8834H57.725V29.6528H52.0667V14.8834Z" fill="#040C19"/>
<path d="M65.0722 10.4H70.7306V17.725H77.5083V10.4H83.1667V29.6528H77.5083V22.2084H70.7306V29.6528H65.0722V10.4Z" fill="#040C19"/>
<path d="M86.4445 10.4H100.028V14.8834H92.1028V17.9528H99.5334V22.1167H92.1028V25.1723H100.028V29.6556H86.4445V10.4Z" fill="#040C19"/>
<path d="M112.958 29.3056C111.744 28.8445 110.797 28.1695 110.117 27.2834C109.436 26.3973 109.061 25.325 108.989 24.0612L108.975 23.8084H114.178L114.206 23.9278C114.286 24.275 114.472 24.5778 114.767 24.8362C115.061 25.0945 115.428 25.2973 115.875 25.4445C116.319 25.5917 116.808 25.6639 117.342 25.6639C117.911 25.6639 118.397 25.5917 118.803 25.45C119.208 25.3084 119.522 25.1112 119.744 24.8639C119.967 24.6139 120.078 24.3306 120.078 24.0112V23.9973C120.078 23.5445 119.858 23.2 119.425 22.9695C118.989 22.7389 118.239 22.525 117.169 22.3278L115.236 21.9806C113.322 21.6417 111.858 20.9973 110.839 20.0473C109.819 19.0945 109.311 17.8723 109.311 16.3778V16.3639C109.311 15.075 109.65 13.9584 110.331 13.0139C111.011 12.0723 111.947 11.3417 113.139 10.825C114.331 10.3084 115.686 10.05 117.208 10.05C118.925 10.05 120.369 10.2889 121.544 10.7695C122.719 11.25 123.617 11.9334 124.239 12.8167C124.861 13.7028 125.2 14.7445 125.253 15.9445L125.267 16.2389H120.064L120.05 16.1056C120.014 15.75 119.875 15.4445 119.631 15.1917C119.386 14.9389 119.061 14.7417 118.656 14.5973C118.25 14.4556 117.792 14.3834 117.275 14.3834C116.758 14.3834 116.325 14.4528 115.975 14.5889C115.625 14.7278 115.358 14.9139 115.181 15.15C115.003 15.3862 114.914 15.65 114.914 15.9445V15.9584C114.914 16.3945 115.131 16.7306 115.567 16.9667C116.003 17.2028 116.7 17.4084 117.661 17.5862L119.594 17.9334C121.658 18.3056 123.189 18.9334 124.183 19.8139C125.181 20.6945 125.678 21.9167 125.678 23.4834V23.4973C125.678 24.8223 125.347 25.9723 124.683 26.9473C124.019 27.9223 123.061 28.6723 121.808 29.2028C120.553 29.7306 119.042 29.9973 117.272 29.9973C115.608 29.9973 114.169 29.7667 112.956 29.3028L112.958 29.3056Z" fill="#040C19"/>
<path d="M132.289 28.7917C130.839 27.9862 129.719 26.8362 128.933 25.3417C128.147 23.8473 127.753 22.0778 127.753 20.0306V20.0028C127.753 17.9584 128.15 16.1889 128.939 14.7C129.731 13.2112 130.85 12.0639 132.3 11.2584C133.75 10.4528 135.461 10.05 137.436 10.05C139.411 10.05 141.153 10.4556 142.606 11.2639C144.061 12.0723 145.181 13.2223 145.967 14.7056C146.753 16.1917 147.147 17.9556 147.147 20.0028V20.0306C147.147 22.0778 146.753 23.8445 145.967 25.3334C145.181 26.8223 144.061 27.9723 142.611 28.7834C141.161 29.5917 139.436 29.9973 137.433 29.9973C135.431 29.9973 133.733 29.5945 132.283 28.7889L132.289 28.7917ZM139.547 24.7278C140.133 24.2917 140.589 23.675 140.908 22.8723C141.228 22.0695 141.389 21.125 141.389 20.0306V20.0028C141.389 18.9 141.228 17.95 140.903 17.1556C140.578 16.3584 140.119 15.7445 139.528 15.3139C138.936 14.8834 138.239 14.6667 137.439 14.6667C136.639 14.6667 135.969 14.8806 135.378 15.3084C134.786 15.7362 134.328 16.3473 134.003 17.1417C133.678 17.9389 133.517 18.8917 133.517 20.0028V20.0306C133.517 21.1334 133.678 22.0862 134.003 22.8862C134.328 23.6862 134.783 24.3028 135.369 24.7334C135.956 25.1639 136.647 25.3806 137.439 25.3806C138.231 25.3806 138.961 25.1639 139.547 24.7278Z" fill="#040C19"/>
<path d="M149.897 10.4H155.556V25.1695H163.108V29.6528H149.9V10.4H149.897Z" fill="#040C19"/>
<path d="M162.131 10.4H168.536L171.592 24.2889H171.697L174.753 10.4H181.158L175.367 29.6528H167.922L162.131 10.4Z" fill="#040C19"/>
<path d="M183.414 10.4H196.997V14.8834H189.072V17.9528H196.503V22.1167H189.072V25.1723H196.997V29.6556H183.414V10.4Z" fill="#040C19"/>
<path d="M18.0778 30.6056C17.275 30.6056 16.475 30.3 15.8639 29.6889L7.56111 21.3861C5.19444 19.0194 3.89167 15.875 3.89167 12.5278C3.89167 9.18055 5.19444 6.03611 7.56111 3.66944C9.925 1.30278 13.0722 0 16.4167 0C19.7611 0 22.9083 1.30278 25.275 3.66944L33.5778 11.9722C34.8 13.1944 34.8 15.1778 33.5778 16.4C32.3556 17.6222 30.3722 17.6222 29.15 16.4L20.8472 8.09722C19.6639 6.91389 18.0917 6.26389 16.4194 6.26389C14.7472 6.26389 13.175 6.91667 11.9917 8.09722C10.8083 9.28055 10.1583 10.8528 10.1583 12.525C10.1583 14.1972 10.8111 15.7694 11.9917 16.9528L20.2944 25.2556C21.5167 26.4778 21.5167 28.4611 20.2944 29.6833C19.6833 30.2944 18.8806 30.6 18.0806 30.6L18.0778 30.6056Z" fill="#1E61E6"/>
<path d="M18.0778 40C14.7333 40 11.5861 38.6972 9.21945 36.3305L0.916667 28.0278C-0.305556 26.8056 -0.305556 24.8222 0.916667 23.6C2.13889 22.3778 4.12222 22.3778 5.34445 23.6L13.6472 31.9028C14.8306 33.0861 16.4028 33.7361 18.075 33.7361C19.7472 33.7361 21.3194 33.0833 22.5028 31.9028C24.9444 29.4611 24.9444 25.4861 22.5028 23.0444L14.2 14.7417C12.9778 13.5194 12.9778 11.5361 14.2 10.3139C15.4222 9.09166 17.4056 9.09166 18.6278 10.3139L26.9306 18.6167C31.8139 23.5 31.8139 31.4472 26.9306 36.3305C24.5639 38.6972 21.4194 40 18.0722 40H18.0778Z" fill="#00C4BF"/>
</g>
<defs>
<clipPath id="clip0_5902_13370">
<rect width="196.997" height="40" fill="white"/>
</clipPath>
</defs>
</svg>
